<svg xmlns="http://www.w3.org/2000/svg" xmlns:xlink="http://www.w3.org/1999/xlink" width="500" zoomAndPan="magnify" viewBox="0 0 375 374.999991" height="500" preserveAspectRatio="xMidYMid meet" version="1.2"><defs><clipPath id="fab84f022b"><path d="M 166 104.527344 L 193 104.527344 L 193 198.511719 L 166 198.511719 Z M 166 104.527344 "/></clipPath><clipPath id="60d1d04e30"><path d="M 134.578125 104.527344 L 161 104.527344 L 161 198.511719 L 134.578125 198.511719 Z M 134.578125 104.527344 "/></clipPath></defs><g id="1db4a87b1d"><path style=" stroke:none;fill-rule:nonzero;fill:#5e17eb;fill-opacity:1;" d="M 196.90625 128.722656 C 196.527344 126.816406 194.660156 125.558594 192.730469 125.960938 C 192.6875 125.96875 192.644531 125.992188 192.597656 126.003906 L 192.585938 140.65625 L 206.136719 194.980469 C 206.527344 196.90625 208.398438 198.15625 210.3125 197.753906 C 212.226562 197.375 213.464844 195.492188 213.074219 193.578125 Z M 196.90625 128.722656 "/><path style=" stroke:none;fill-rule:nonzero;fill:#5e17eb;fill-opacity:1;" d="M 204.410156 127.230469 C 204.246094 126.394531 203.421875 125.847656 202.585938 126.015625 C 201.75 126.183594 201.207031 127.015625 201.371094 127.851562 L 217.527344 192.644531 C 217.695312 193.476562 218.53125 194.035156 219.367188 193.855469 C 220.199219 193.691406 220.746094 192.867188 220.566406 192.03125 Z M 204.410156 127.230469 "/><path style=" stroke:none;fill-rule:nonzero;fill:#5e17eb;fill-opacity:1;" d="M 212.519531 125.59375 C 212.351562 124.757812 211.527344 124.199219 210.691406 124.378906 C 209.855469 124.546875 209.3125 125.371094 209.476562 126.203125 L 225.632812 191.007812 C 225.8125 191.832031 226.625 192.386719 227.460938 192.21875 C 228.304688 192.054688 228.839844 191.21875 228.675781 190.382812 Z M 212.519531 125.59375 "/><path style=" stroke:none;fill-rule:nonzero;fill:#5e17eb;fill-opacity:1;" d="M 223.695312 123.289062 C 223.308594 121.382812 221.4375 120.125 219.511719 120.527344 C 217.59375 120.90625 216.359375 122.785156 216.738281 124.703125 L 232.917969 189.546875 C 233.304688 191.472656 235.175781 192.710938 237.089844 192.320312 C 239.019531 191.929688 240.253906 190.058594 239.863281 188.144531 Z M 223.695312 123.289062 "/><g clip-rule="nonzero" clip-path="url(#fab84f022b)"><path style=" stroke:none;fill-rule:nonzero;fill:#5e17eb;fill-opacity:1;" d="M 192.597656 126.003906 L 192.597656 110.882812 C 192.621094 107.375 189.78125 104.546875 186.273438 104.546875 L 173.046875 104.527344 C 169.550781 104.527344 166.722656 107.355469 166.710938 110.859375 L 166.675781 192.164062 C 166.675781 195.648438 169.503906 198.5 173 198.5 L 186.21875 198.511719 C 189.726562 198.511719 192.566406 195.671875 192.566406 192.1875 L 192.585938 140.65625 L 189.960938 130.136719 C 189.59375 128.277344 190.761719 126.449219 192.597656 126.003906 Z M 185.015625 189.148438 L 174.28125 189.136719 C 173.058594 189.136719 172.054688 188.132812 172.054688 186.921875 C 172.066406 185.695312 173.058594 184.695312 174.28125 184.695312 L 185.015625 184.703125 C 186.242188 184.703125 187.230469 185.707031 187.230469 186.929688 C 187.230469 188.144531 186.242188 189.148438 185.015625 189.148438 Z M 185.027344 125.492188 L 174.292969 125.492188 C 173.070312 125.492188 172.066406 124.488281 172.066406 123.265625 C 172.066406 122.039062 173.070312 121.050781 174.292969 121.050781 L 185.027344 121.058594 C 186.25 121.058594 187.242188 122.0625 187.242188 123.277344 C 187.230469 124.5 186.25 125.492188 185.027344 125.492188 Z M 185.027344 125.492188 "/></g><path style=" stroke:none;fill-rule:nonzero;fill:#5e17eb;fill-opacity:1;" d="M 189.960938 130.136719 L 192.585938 140.65625 L 192.597656 126.003906 C 190.761719 126.449219 189.59375 128.277344 189.960938 130.136719 Z M 189.960938 130.136719 "/><g clip-rule="nonzero" clip-path="url(#60d1d04e30)"><path style=" stroke:none;fill-rule:nonzero;fill:#5e17eb;fill-opacity:1;" d="M 154.171875 104.535156 L 140.957031 104.527344 C 137.460938 104.527344 134.621094 107.355469 134.609375 110.859375 L 134.578125 192.164062 C 134.566406 195.648438 137.40625 198.5 140.902344 198.5 L 154.117188 198.511719 C 157.625 198.511719 160.464844 195.671875 160.464844 192.1875 L 160.496094 110.882812 C 160.507812 107.375 157.667969 104.535156 154.171875 104.535156 Z M 152.925781 189.148438 L 142.183594 189.136719 C 140.96875 189.136719 139.964844 188.132812 139.964844 186.921875 C 139.964844 185.695312 140.957031 184.695312 142.183594 184.695312 L 152.925781 184.703125 C 154.140625 184.703125 155.140625 185.707031 155.140625 186.929688 C 155.140625 188.144531 154.140625 189.148438 152.925781 189.148438 Z M 152.925781 125.492188 L 142.191406 125.492188 C 140.96875 125.492188 139.976562 124.488281 139.976562 123.265625 C 139.976562 122.039062 140.96875 121.050781 142.191406 121.050781 L 152.925781 121.058594 C 154.152344 121.058594 155.140625 122.0625 155.140625 123.277344 C 155.140625 124.5 154.140625 125.492188 152.925781 125.492188 Z M 152.925781 125.492188 "/></g><g style="fill:#18dcff;fill-opacity:1;"><g transform="translate(76.149112, 241.233426)"><path style="stroke:none" d="M 11.6875 0.515625 C 9.59375 0.515625 7.554688 0.257812 5.578125 -0.25 C 3.609375 -0.769531 2.007812 -1.460938 0.78125 -2.328125 L 3.1875 -7.734375 C 4.34375 -6.972656 5.6875 -6.359375 7.21875 -5.890625 C 8.75 -5.421875 10.253906 -5.1875 11.734375 -5.1875 C 14.546875 -5.1875 15.953125 -5.882812 15.953125 -7.28125 C 15.953125 -8.03125 15.550781 -8.582031 14.75 -8.9375 C 13.945312 -9.289062 12.65625 -9.664062 10.875 -10.0625 C 8.925781 -10.476562 7.296875 -10.925781 5.984375 -11.40625 C 4.679688 -11.894531 3.5625 -12.664062 2.625 -13.71875 C 1.6875 -14.78125 1.21875 -16.210938 1.21875 -18.015625 C 1.21875 -19.597656 1.648438 -21.023438 2.515625 -22.296875 C 3.378906 -23.566406 4.664062 -24.570312 6.375 -25.3125 C 8.09375 -26.050781 10.195312 -26.421875 12.6875 -26.421875 C 14.394531 -26.421875 16.070312 -26.226562 17.71875 -25.84375 C 19.375 -25.457031 20.832031 -24.894531 22.09375 -24.15625 L 19.828125 -18.71875 C 17.359375 -20.050781 14.96875 -20.71875 12.65625 -20.71875 C 11.195312 -20.71875 10.132812 -20.5 9.46875 -20.0625 C 8.800781 -19.632812 8.46875 -19.078125 8.46875 -18.390625 C 8.46875 -17.703125 8.863281 -17.179688 9.65625 -16.828125 C 10.445312 -16.484375 11.71875 -16.128906 13.46875 -15.765625 C 15.4375 -15.347656 17.066406 -14.894531 18.359375 -14.40625 C 19.660156 -13.925781 20.785156 -13.160156 21.734375 -12.109375 C 22.679688 -11.066406 23.15625 -9.644531 23.15625 -7.84375 C 23.15625 -6.289062 22.722656 -4.882812 21.859375 -3.625 C 21.003906 -2.363281 19.710938 -1.359375 17.984375 -0.609375 C 16.253906 0.140625 14.15625 0.515625 11.6875 0.515625 Z M 11.6875 0.515625 "/></g></g><g style="fill:#18dcff;fill-opacity:1;"><g transform="translate(102.934556, 241.233426)"><path style="stroke:none" d="M 25.96875 0 L 25.90625 -13.734375 L 19.234375 -2.546875 L 15.984375 -2.546875 L 9.359375 -13.359375 L 9.359375 0 L 2.59375 0 L 2.59375 -25.90625 L 8.625 -25.90625 L 17.71875 -10.953125 L 26.609375 -25.90625 L 32.640625 -25.90625 L 32.703125 0 Z M 25.96875 0 "/></g></g><g style="fill:#18dcff;fill-opacity:1;"><g transform="translate(141.077792, 241.233426)"><path style="stroke:none" d="M 19.9375 -5.03125 L 8.984375 -5.03125 L 6.953125 0 L -0.515625 0 L 10.921875 -25.90625 L 18.125 -25.90625 L 29.59375 0 L 21.984375 0 Z M 17.796875 -10.4375 L 14.46875 -18.71875 L 11.140625 -10.4375 Z M 17.796875 -10.4375 "/></g></g><g style="fill:#18dcff;fill-opacity:1;"><g transform="translate(173.005696, 241.233426)"><path style="stroke:none" d="M 13.90625 -6.875 L 9.921875 -6.875 L 9.921875 0 L 2.59375 0 L 2.59375 -25.90625 L 14.4375 -25.90625 C 16.769531 -25.90625 18.800781 -25.515625 20.53125 -24.734375 C 22.257812 -23.953125 23.59375 -22.835938 24.53125 -21.390625 C 25.46875 -19.953125 25.9375 -18.257812 25.9375 -16.3125 C 25.9375 -14.4375 25.5 -12.800781 24.625 -11.40625 C 23.75 -10.019531 22.5 -8.929688 20.875 -8.140625 L 26.453125 0 L 18.609375 0 Z M 18.53125 -16.3125 C 18.53125 -17.519531 18.148438 -18.457031 17.390625 -19.125 C 16.628906 -19.789062 15.492188 -20.125 13.984375 -20.125 L 9.921875 -20.125 L 9.921875 -12.546875 L 13.984375 -12.546875 C 15.492188 -12.546875 16.628906 -12.867188 17.390625 -13.515625 C 18.148438 -14.171875 18.53125 -15.101562 18.53125 -16.3125 Z M 18.53125 -16.3125 "/></g></g><g style="fill:#18dcff;fill-opacity:1;"><g transform="translate(203.231783, 241.233426)"><path style="stroke:none" d="M 8.109375 -20.09375 L 0.140625 -20.09375 L 0.140625 -25.90625 L 23.34375 -25.90625 L 23.34375 -20.09375 L 15.421875 -20.09375 L 15.421875 0 L 8.109375 0 Z M 8.109375 -20.09375 "/></g></g><g style="fill:#18dcff;fill-opacity:1;"><g transform="translate(229.573277, 241.233426)"><path style="stroke:none" d="M 2.59375 -25.90625 L 9.921875 -25.90625 L 9.921875 -5.8125 L 22.28125 -5.8125 L 22.28125 0 L 2.59375 0 Z M 2.59375 -25.90625 "/></g></g><g style="fill:#18dcff;fill-opacity:1;"><g transform="translate(254.989871, 241.233426)"><path style="stroke:none" d="M 2.59375 -25.90625 L 9.921875 -25.90625 L 9.921875 0 L 2.59375 0 Z M 2.59375 -25.90625 "/></g></g><g style="fill:#18dcff;fill-opacity:1;"><g transform="translate(270.380537, 241.233426)"><path style="stroke:none" d="M 22.5 -13.5 C 23.976562 -12.988281 25.132812 -12.179688 25.96875 -11.078125 C 26.8125 -9.984375 27.234375 -8.660156 27.234375 -7.109375 C 27.234375 -4.835938 26.316406 -3.082031 24.484375 -1.84375 C 22.660156 -0.613281 20.023438 0 16.578125 0 L 2.59375 0 L 2.59375 -25.90625 L 15.84375 -25.90625 C 19.144531 -25.90625 21.65625 -25.289062 23.375 -24.0625 C 25.101562 -22.84375 25.96875 -21.195312 25.96875 -19.125 C 25.96875 -17.894531 25.664062 -16.789062 25.0625 -15.8125 C 24.457031 -14.84375 23.601562 -14.070312 22.5 -13.5 Z M 9.84375 -20.609375 L 9.84375 -15.609375 L 14.875 -15.609375 C 17.34375 -15.609375 18.578125 -16.445312 18.578125 -18.125 C 18.578125 -19.78125 17.34375 -20.609375 14.875 -20.609375 Z M 15.984375 -5.296875 C 18.546875 -5.296875 19.828125 -6.171875 19.828125 -7.921875 C 19.828125 -9.671875 18.546875 -10.546875 15.984375 -10.546875 L 9.84375 -10.546875 L 9.84375 -5.296875 Z M 15.984375 -5.296875 "/></g></g><g style="fill:#0ed6d0;fill-opacity:1;"><g transform="translate(112.185172, 266.761067)"><path style="stroke:none" d="M 7.171875 0 L 5.3125 -2.671875 C 5.238281 -2.660156 5.125 -2.65625 4.96875 -2.65625 L 2.90625 -2.65625 L 2.90625 0 L 1.21875 0 L 1.21875 -9.09375 L 4.96875 -9.09375 C 5.757812 -9.09375 6.445312 -8.960938 7.03125 -8.703125 C 7.613281 -8.441406 8.0625 -8.066406 8.375 -7.578125 C 8.6875 -7.097656 8.84375 -6.523438 8.84375 -5.859375 C 8.84375 -5.179688 8.675781 -4.59375 8.34375 -4.09375 C 8.007812 -3.601562 7.53125 -3.234375 6.90625 -2.984375 L 9 0 Z M 7.140625 -5.859375 C 7.140625 -6.441406 6.945312 -6.890625 6.5625 -7.203125 C 6.1875 -7.515625 5.628906 -7.671875 4.890625 -7.671875 L 2.90625 -7.671875 L 2.90625 -4.046875 L 4.890625 -4.046875 C 5.628906 -4.046875 6.1875 -4.203125 6.5625 -4.515625 C 6.945312 -4.828125 7.140625 -5.273438 7.140625 -5.859375 Z M 7.140625 -5.859375 "/></g></g><g style="fill:#0ed6d0;fill-opacity:1;"><g transform="translate(125.091304, 266.761067)"><path style="stroke:none" d="M 8.046875 -1.421875 L 8.046875 0 L 1.21875 0 L 1.21875 -9.09375 L 7.859375 -9.09375 L 7.859375 -7.6875 L 2.90625 -7.6875 L 2.90625 -5.3125 L 7.3125 -5.3125 L 7.3125 -3.921875 L 2.90625 -3.921875 L 2.90625 -1.421875 Z M 8.046875 -1.421875 "/></g></g><g style="fill:#0ed6d0;fill-opacity:1;"><g transform="translate(137.204679, 266.761067)"><path style="stroke:none" d="M 7.125 -2.109375 L 2.578125 -2.109375 L 1.671875 0 L -0.0625 0 L 4.03125 -9.09375 L 5.6875 -9.09375 L 9.796875 0 L 8.03125 0 Z M 6.5625 -3.4375 L 4.84375 -7.40625 L 3.140625 -3.4375 Z M 6.5625 -3.4375 "/></g></g><g style="fill:#0ed6d0;fill-opacity:1;"><g transform="translate(150.344739, 266.761067)"><path style="stroke:none" d="M 1.21875 -9.09375 L 5.203125 -9.09375 C 6.171875 -9.09375 7.03125 -8.90625 7.78125 -8.53125 C 8.539062 -8.15625 9.128906 -7.625 9.546875 -6.9375 C 9.960938 -6.25 10.171875 -5.453125 10.171875 -4.546875 C 10.171875 -3.648438 9.960938 -2.851562 9.546875 -2.15625 C 9.128906 -1.46875 8.539062 -0.9375 7.78125 -0.5625 C 7.03125 -0.1875 6.171875 0 5.203125 0 L 1.21875 0 Z M 5.125 -1.4375 C 5.789062 -1.4375 6.375 -1.5625 6.875 -1.8125 C 7.382812 -2.070312 7.773438 -2.4375 8.046875 -2.90625 C 8.328125 -3.375 8.46875 -3.921875 8.46875 -4.546875 C 8.46875 -5.171875 8.328125 -5.71875 8.046875 -6.1875 C 7.773438 -6.664062 7.382812 -7.03125 6.875 -7.28125 C 6.375 -7.539062 5.789062 -7.671875 5.125 -7.671875 L 2.90625 -7.671875 L 2.90625 -1.4375 Z M 5.125 -1.4375 "/></g></g><g style="fill:#0ed6d0;fill-opacity:1;"><g transform="translate(164.485493, 266.761067)"><path style="stroke:none" d="M 1.59375 0.09375 C 1.289062 0.09375 1.035156 -0.00390625 0.828125 -0.203125 C 0.617188 -0.410156 0.515625 -0.671875 0.515625 -0.984375 C 0.515625 -1.304688 0.613281 -1.566406 0.8125 -1.765625 C 1.019531 -1.960938 1.28125 -2.0625 1.59375 -2.0625 C 1.894531 -2.0625 2.144531 -1.960938 2.34375 -1.765625 C 2.550781 -1.566406 2.65625 -1.304688 2.65625 -0.984375 C 2.65625 -0.671875 2.550781 -0.410156 2.34375 -0.203125 C 2.132812 -0.00390625 1.882812 0.09375 1.59375 0.09375 Z M 1.59375 0.09375 "/></g></g><g style="fill:#0ed6d0;fill-opacity:1;"><g transform="translate(171.062573, 266.761067)"><path style="stroke:none" d=""/></g></g><g style="fill:#0ed6d0;fill-opacity:1;"><g transform="translate(178.055519, 266.761067)"><path style="stroke:none" d="M 9.578125 0 L 9.5625 -6.03125 L 6.578125 -1.046875 L 5.828125 -1.046875 L 2.828125 -5.953125 L 2.828125 0 L 1.21875 0 L 1.21875 -9.09375 L 2.609375 -9.09375 L 6.234375 -3.0625 L 9.78125 -9.09375 L 11.171875 -9.09375 L 11.1875 0 Z M 9.578125 0 "/></g></g><g style="fill:#0ed6d0;fill-opacity:1;"><g transform="translate(193.872764, 266.761067)"><path style="stroke:none" d="M 7.125 -2.109375 L 2.578125 -2.109375 L 1.671875 0 L -0.0625 0 L 4.03125 -9.09375 L 5.6875 -9.09375 L 9.796875 0 L 8.03125 0 Z M 6.5625 -3.4375 L 4.84375 -7.40625 L 3.140625 -3.4375 Z M 6.5625 -3.4375 "/></g></g><g style="fill:#0ed6d0;fill-opacity:1;"><g transform="translate(207.012823, 266.761067)"><path style="stroke:none" d="M 9.3125 -9.09375 L 9.3125 0 L 7.921875 0 L 2.90625 -6.15625 L 2.90625 0 L 1.21875 0 L 1.21875 -9.09375 L 2.609375 -9.09375 L 7.625 -2.9375 L 7.625 -9.09375 Z M 9.3125 -9.09375 "/></g></g><g style="fill:#0ed6d0;fill-opacity:1;"><g transform="translate(220.94565, 266.761067)"><path style="stroke:none" d="M 7.125 -2.109375 L 2.578125 -2.109375 L 1.671875 0 L -0.0625 0 L 4.03125 -9.09375 L 5.6875 -9.09375 L 9.796875 0 L 8.03125 0 Z M 6.5625 -3.4375 L 4.84375 -7.40625 L 3.140625 -3.4375 Z M 6.5625 -3.4375 "/></g></g><g style="fill:#0ed6d0;fill-opacity:1;"><g transform="translate(234.08571, 266.761067)"><path style="stroke:none" d="M 7.4375 -4.65625 L 9.03125 -4.65625 L 9.03125 -1.03125 C 8.5625 -0.65625 8.015625 -0.367188 7.390625 -0.171875 C 6.773438 0.0234375 6.132812 0.125 5.46875 0.125 C 4.539062 0.125 3.703125 -0.0703125 2.953125 -0.46875 C 2.210938 -0.875 1.628906 -1.429688 1.203125 -2.140625 C 0.785156 -2.859375 0.578125 -3.660156 0.578125 -4.546875 C 0.578125 -5.441406 0.785156 -6.242188 1.203125 -6.953125 C 1.628906 -7.660156 2.21875 -8.21875 2.96875 -8.625 C 3.71875 -9.03125 4.5625 -9.234375 5.5 -9.234375 C 6.257812 -9.234375 6.953125 -9.101562 7.578125 -8.84375 C 8.203125 -8.59375 8.726562 -8.226562 9.15625 -7.75 L 8.09375 -6.703125 C 7.394531 -7.398438 6.554688 -7.75 5.578125 -7.75 C 4.929688 -7.75 4.359375 -7.613281 3.859375 -7.34375 C 3.367188 -7.070312 2.984375 -6.691406 2.703125 -6.203125 C 2.421875 -5.722656 2.28125 -5.171875 2.28125 -4.546875 C 2.28125 -3.941406 2.421875 -3.394531 2.703125 -2.90625 C 2.984375 -2.425781 3.367188 -2.046875 3.859375 -1.765625 C 4.359375 -1.492188 4.925781 -1.359375 5.5625 -1.359375 C 6.269531 -1.359375 6.894531 -1.507812 7.4375 -1.8125 Z M 7.4375 -4.65625 "/></g></g><g style="fill:#0ed6d0;fill-opacity:1;"><g transform="translate(247.524678, 266.761067)"><path style="stroke:none" d="M 8.046875 -1.421875 L 8.046875 0 L 1.21875 0 L 1.21875 -9.09375 L 7.859375 -9.09375 L 7.859375 -7.6875 L 2.90625 -7.6875 L 2.90625 -5.3125 L 7.3125 -5.3125 L 7.3125 -3.921875 L 2.90625 -3.921875 L 2.90625 -1.421875 Z M 8.046875 -1.421875 "/></g></g><g style="fill:#0ed6d0;fill-opacity:1;"><g transform="translate(259.638053, 266.761067)"><path style="stroke:none" d="M 1.59375 0.09375 C 1.289062 0.09375 1.035156 -0.00390625 0.828125 -0.203125 C 0.617188 -0.410156 0.515625 -0.671875 0.515625 -0.984375 C 0.515625 -1.304688 0.613281 -1.566406 0.8125 -1.765625 C 1.019531 -1.960938 1.28125 -2.0625 1.59375 -2.0625 C 1.894531 -2.0625 2.144531 -1.960938 2.34375 -1.765625 C 2.550781 -1.566406 2.65625 -1.304688 2.65625 -0.984375 C 2.65625 -0.671875 2.550781 -0.410156 2.34375 -0.203125 C 2.132812 -0.00390625 1.882812 0.09375 1.59375 0.09375 Z M 1.59375 0.09375 "/></g></g><g style="fill:#0ed6d0;fill-opacity:1;"><g transform="translate(156.423451, 284.761066)"><path style="stroke:none" d="M 7.4375 -4.65625 L 9.03125 -4.65625 L 9.03125 -1.03125 C 8.5625 -0.65625 8.015625 -0.367188 7.390625 -0.171875 C 6.773438 0.0234375 6.132812 0.125 5.46875 0.125 C 4.539062 0.125 3.703125 -0.0703125 2.953125 -0.46875 C 2.210938 -0.875 1.628906 -1.429688 1.203125 -2.140625 C 0.785156 -2.859375 0.578125 -3.660156 0.578125 -4.546875 C 0.578125 -5.441406 0.785156 -6.242188 1.203125 -6.953125 C 1.628906 -7.660156 2.21875 -8.21875 2.96875 -8.625 C 3.71875 -9.03125 4.5625 -9.234375 5.5 -9.234375 C 6.257812 -9.234375 6.953125 -9.101562 7.578125 -8.84375 C 8.203125 -8.59375 8.726562 -8.226562 9.15625 -7.75 L 8.09375 -6.703125 C 7.394531 -7.398438 6.554688 -7.75 5.578125 -7.75 C 4.929688 -7.75 4.359375 -7.613281 3.859375 -7.34375 C 3.367188 -7.070312 2.984375 -6.691406 2.703125 -6.203125 C 2.421875 -5.722656 2.28125 -5.171875 2.28125 -4.546875 C 2.28125 -3.941406 2.421875 -3.394531 2.703125 -2.90625 C 2.984375 -2.425781 3.367188 -2.046875 3.859375 -1.765625 C 4.359375 -1.492188 4.925781 -1.359375 5.5625 -1.359375 C 6.269531 -1.359375 6.894531 -1.507812 7.4375 -1.8125 Z M 7.4375 -4.65625 "/></g></g><g style="fill:#0ed6d0;fill-opacity:1;"><g transform="translate(169.862419, 284.761066)"><path style="stroke:none" d="M 7.171875 0 L 5.3125 -2.671875 C 5.238281 -2.660156 5.125 -2.65625 4.96875 -2.65625 L 2.90625 -2.65625 L 2.90625 0 L 1.21875 0 L 1.21875 -9.09375 L 4.96875 -9.09375 C 5.757812 -9.09375 6.445312 -8.960938 7.03125 -8.703125 C 7.613281 -8.441406 8.0625 -8.066406 8.375 -7.578125 C 8.6875 -7.097656 8.84375 -6.523438 8.84375 -5.859375 C 8.84375 -5.179688 8.675781 -4.59375 8.34375 -4.09375 C 8.007812 -3.601562 7.53125 -3.234375 6.90625 -2.984375 L 9 0 Z M 7.140625 -5.859375 C 7.140625 -6.441406 6.945312 -6.890625 6.5625 -7.203125 C 6.1875 -7.515625 5.628906 -7.671875 4.890625 -7.671875 L 2.90625 -7.671875 L 2.90625 -4.046875 L 4.890625 -4.046875 C 5.628906 -4.046875 6.1875 -4.203125 6.5625 -4.515625 C 6.945312 -4.828125 7.140625 -5.273438 7.140625 -5.859375 Z M 7.140625 -5.859375 "/></g></g><g style="fill:#0ed6d0;fill-opacity:1;"><g transform="translate(182.76855, 284.761066)"><path style="stroke:none" d="M 5.46875 0.125 C 4.539062 0.125 3.703125 -0.0703125 2.953125 -0.46875 C 2.210938 -0.875 1.628906 -1.429688 1.203125 -2.140625 C 0.785156 -2.859375 0.578125 -3.660156 0.578125 -4.546875 C 0.578125 -5.429688 0.785156 -6.226562 1.203125 -6.9375 C 1.628906 -7.65625 2.210938 -8.21875 2.953125 -8.625 C 3.703125 -9.03125 4.539062 -9.234375 5.46875 -9.234375 C 6.394531 -9.234375 7.226562 -9.03125 7.96875 -8.625 C 8.71875 -8.21875 9.304688 -7.660156 9.734375 -6.953125 C 10.160156 -6.242188 10.375 -5.441406 10.375 -4.546875 C 10.375 -3.660156 10.160156 -2.859375 9.734375 -2.140625 C 9.304688 -1.429688 8.71875 -0.875 7.96875 -0.46875 C 7.226562 -0.0703125 6.394531 0.125 5.46875 0.125 Z M 5.46875 -1.359375 C 6.082031 -1.359375 6.628906 -1.492188 7.109375 -1.765625 C 7.597656 -2.035156 7.976562 -2.414062 8.25 -2.90625 C 8.53125 -3.394531 8.671875 -3.941406 8.671875 -4.546875 C 8.671875 -5.148438 8.53125 -5.695312 8.25 -6.1875 C 7.976562 -6.675781 7.597656 -7.054688 7.109375 -7.328125 C 6.628906 -7.609375 6.082031 -7.75 5.46875 -7.75 C 4.863281 -7.75 4.316406 -7.609375 3.828125 -7.328125 C 3.347656 -7.054688 2.96875 -6.675781 2.6875 -6.1875 C 2.414062 -5.695312 2.28125 -5.148438 2.28125 -4.546875 C 2.28125 -3.941406 2.414062 -3.394531 2.6875 -2.90625 C 2.96875 -2.414062 3.347656 -2.035156 3.828125 -1.765625 C 4.316406 -1.492188 4.863281 -1.359375 5.46875 -1.359375 Z M 5.46875 -1.359375 "/></g></g><g style="fill:#0ed6d0;fill-opacity:1;"><g transform="translate(197.117243, 284.761066)"><path style="stroke:none" d="M 14.515625 -9.09375 L 11.5 0 L 9.71875 0 L 7.46875 -6.734375 L 5.171875 0 L 3.359375 0 L 0.34375 -9.09375 L 2.109375 -9.09375 L 4.375 -2.1875 L 6.71875 -9.09375 L 8.28125 -9.09375 L 10.578125 -2.140625 L 12.90625 -9.09375 Z M 14.515625 -9.09375 "/></g></g><g style="fill:#0ed6d0;fill-opacity:1;"><g transform="translate(215.390733, 284.761066)"><path style="stroke:none" d="M 1.59375 0.09375 C 1.289062 0.09375 1.035156 -0.00390625 0.828125 -0.203125 C 0.617188 -0.410156 0.515625 -0.671875 0.515625 -0.984375 C 0.515625 -1.304688 0.613281 -1.566406 0.8125 -1.765625 C 1.019531 -1.960938 1.28125 -2.0625 1.59375 -2.0625 C 1.894531 -2.0625 2.144531 -1.960938 2.34375 -1.765625 C 2.550781 -1.566406 2.65625 -1.304688 2.65625 -0.984375 C 2.65625 -0.671875 2.550781 -0.410156 2.34375 -0.203125 C 2.132812 -0.00390625 1.882812 0.09375 1.59375 0.09375 Z M 1.59375 0.09375 "/></g></g></g></svg>